PathFileType	4	(X/Y/Z)	P:\Projects\LMB_grand_challenge_database\project_only\opensim\experimental_data\SixthCompetition/DM_ngait_og3_new.trc
DataRate	CameraRate	NumFrames	NumMarkers	Units	OrigDataRate	OrigDataStartFrame	OrigNumFrames
120	120	4	68	mm	120	113	302
Frame#	Time	Sternum			Neck			R_Shoulder			L_Shoulder			Xiphoid			Thoracic			R_Asis			L_Asis			R_Psis			L_Psis			Lumbar			R_Elbow			R_ElbowMedial			R_ShoulderAnterior			R_ShoulderPosterior			R_Wrist			R_Radius			R_Ulna			L_Elbow			L_ElbowMedial			L_ShoulderAnterior			L_ShoulderPosterior			L_Wrist			L_Ulna			L_Radius			L_Thigh_Superior			L_Thigh_Inferior			L_Thigh_Lateral			L_Knee_Lateral			L_Knee_Medial			L_Patella			L_Shank_Superior			L_Shank_Inferior			L_Shank_Lateral			L_Ankle_Lateral			L_Ankle_Medial			R_Thigh_Superior			R_Thigh_Inferior			R_Thigh_Lateral			R_Knee_Lateral			R_Knee_Medial			R_Patella			R_Shank_Superior			R_Shank_Inferior			R_Shank_Lateral			R_Ankle_Lateral			RankleMedial			R_Heel			R_Toe			R_Midfoot_Medial			R_Midfoot_Lateral			R_Hindfoot			R_Midfoot_Superior			R_ToeMedial			R_ToeLateral			L_Heel			L_Toe			L_Midfoot_Medial			L_Midfoot_Lateral			L_Hindfoot			L_Midfoot_Superior			L_ToeMedial			L_ToeLateral			Oglobal			Sacral			Xglobal			Yglobal			Zglobal			
		X1	Y1	Z1	X2	Y2	Z2	X3	Y3	Z3	X4	Y4	Z4	X5	Y5	Z5	X6	Y6	Z6	X7	Y7	Z7	X8	Y8	Z8	X9	Y9	Z9	X10	Y10	Z10	X11	Y11	Z11	X12	Y12	Z12	X13	Y13	Z13	X14	Y14	Z14	X15	Y15	Z15	X16	Y16	Z16	X17	Y17	Z17	X18	Y18	Z18	X19	Y19	Z19	X20	Y20	Z20	X21	Y21	Z21	X22	Y22	Z22	X23	Y23	Z23	X24	Y24	Z24	X25	Y25	Z25	X26	Y26	Z26	X27	Y27	Z27	X28	Y28	Z28	X29	Y29	Z29	X30	Y30	Z30	X31	Y31	Z31	X32	Y32	Z32	X33	Y33	Z33	X34	Y34	Z34	X35	Y35	Z35	X36	Y36	Z36	X37	Y37	Z37	X38	Y38	Z38	X39	Y39	Z39	X40	Y40	Z40	X41	Y41	Z41	X42	Y42	Z42	X43	Y43	Z43	X44	Y44	Z44	X45	Y45	Z45	X46	Y46	Z46	X47	Y47	Z47	X48	Y48	Z48	X49	Y49	Z49	X50	Y50	Z50	X51	Y51	Z51	X52	Y52	Z52	X53	Y53	Z53	X54	Y54	Z54	X55	Y55	Z55	X56	Y56	Z56	X57	Y57	Z57	X58	Y58	Z58	X59	Y59	Z59	X60	Y60	Z60	X61	Y61	Z61	X62	Y62	Z62	X63	Y63	Z63	X64	Y64	Z64	X65	Y65	Z65	X66	Y66	Z66	X67	Y67	Z67	X68	Y68	Z68	

114	3.141667	-41.1177	1440.68	291.64	115.021	1353.38	270.132	71.37260000000001	1382.32	444.82	8.76014	1413.45	107.92	124.649	1186.29	269.463	-139.346	1258.67	267.32	21.5301	966.054	403.624	52.0514	959.989	123.517	-165.095	1014.32	273.032	-156.315	1011.16	195.273	-157.36	1062.51	234.365	116.822	1062.12	510.423	-0	0	0	-0	0	0	-0	0	0	247.876	820.838	442.975	231.855	832.202	400.467	205.533	817.122	466.419	-113.596	1113.07	-18.2713	-0	0	0	-0	0	0	-0	0	0	-139.418	843.123	-46.763	-175.265	874.295	-62.0931	-137.758	857.484	-0.685472	19.3807	795.461	78.2985	120.415	599.141	141.509	131.477	699.165	158.184	-0	0	0	-0	0	0	182.853	539.771	214.071	136.356	450.198	147.099	182.711	182.824	156.982	192.973	318.468	223.394	-0	0	0	-0	0	0	-102.775	794.457	417.656	-148.254	583.402	371.143	-47.0265	688.1180000000001	399.715	-0	0	0	-0	0	0	-93.77200000000001	473.213	305.988	-247.502	405.863	370.466	-320.299	209.338	346.679	-208.433	305.811	289.985	-0	0	0	-0	0	0	-439.553	91.72929999999999	284.694	-147.123	47.9159	280.527	-224.18	32.974	230.12	-237.629	18.1387	345.668	-347.041	35.2493	333.203	-268.175	121.731	295.263	-181.492	37.6353	236.787	-188.952	37.4968	328.559	146.149	53.6789	211.219	433.202	127.07	208.482	364.493	85.4482	261.062	354.161	79.6422	147.196	252.112	44.5816	154.492	288.574	151.835	205.327	403.66	97.4806	250.893	403.517	100.017	155.165	-0	0	0	-160.705	1012.74	234.152	-200	0	0	-0	0	200	-0	200	0	
115	3.15	-32.5135	1438.96	290.036	124	1352.11	269.021	79.6408	1381.49	443.618	17.439	1411.63	106.352	134.446	1185.23	268.758	-129.895	1256.48	265.817	31.2008	964.4690000000001	404.006	63.2443	958.326	123.655	-154.782	1012.37	272.367	-145.597	1008.89	194.469	-147.004	1060.42	233.561	126.11	1061.34	509.197	-0	0	0	-0	0	0	-0	0	0	257.193	820.247	442.524	241.113	831.586	400.047	214.739	816.724	466.019	-104.773	1110.83	-18.5849	-0	0	0	-0	0	0	-0	0	0	-130.089	841.043	-47.3919	-166.318	872.114	-62.0467	-128.436	855.417	-0.904865	33.4854	793.505	80.5763	132.42	598.197	146.625	145.54	697.797	160.09	-0	0	0	-0	0	0	193.192	536.247	218.599	147.824	448.285	149.526	190.048	180.785	158.527	200.114	315.173	227.015	-0	0	0	-0	0	0	-93.25620000000001	793.022	417.377	-140.307	582.46	371.375	-38.7101	686.602	400.53	-0	0	0	-0	0	0	-86.54810000000001	470.839	307.245	-241.502	406.304	370.611	-317.273	210.884	347.075	-203.489	305.405	290.586	-0	0	0	-0	0	0	-438.144	94.9507	285.006	-146.768	47.3729	280.512	-223.688	32.7551	230.63	-237.535	17.9732	346.139	-346.737	36.6047	333.708	-266.334	122.122	295.846	-181.271	37.2035	236.668	-188.707	37.1646	328.54	150.035	54.3928	210.233	439.061	117.273	216.605	367.582	78.2068	267.45	360.862	73.1002	153.279	256.523	40.6872	156.77	295.408	147.057	209.489	406.54	88.0021	258.299	409.193	90.3357	162.864	-0	0	0	-150.189	1010.63	233.418	-200	0	0	-0	0	200	-0	200	0	
116	3.158333	-23.7049	1437.59	288.228	132.927	1351.08	267.676	87.69710000000001	1380.87	442.237	26.2396	1410	104.771	144.135	1184.15	267.862	-120.219	1254.43	264.317	41.4289	963.27	403.767	74.38760000000001	956.66	123.664	-144.242	1010.43	271.416	-134.878	1006.69	193.604	-136.508	1058.36	232.615	135.305	1060.63	507.793	-0	0	0	-0	0	0	-0	0	0	266.228	819.421	442.036	250.116	830.8150000000001	399.584	224.138	816.3099999999999	465.86	-95.7201	1108.66	-19.2131	-0	0	0	-0	0	0	-0	0	0	-120.505	838.634	-47.9225	-156.274	869.9640000000001	-62.6525	-118.867	853.303	-1.00294	47.4731	791.5599999999999	83.42400000000001	143.544	596.86	152.438	159.449	695.952	162.279	-0	0	0	-0	0	0	202.94	533.1319999999999	222.966	158.77	446.816	151.364	198.275	179.171	159.088	207.651	312.564	229.381	-0	0	0	-0	0	0	-83.79470000000001	792.018	417.542	-131.712	581.521	371.409	-29.9192	685.135	401.389	-0	0	0	-0	0	0	-77.99760000000001	469.088	308.948	-235.542	407.035	371.016	-313.819	212.616	347.447	-198.22	304.765	291.313	-0	0	0	-0	0	0	-436.129	98.6562	285.328	-146.179	46.5541	280.512	-222.809	33.104	230.432	-236.94	17.5854	345.809	-345.965	38.4497	333.404	-264.099	122.626	296.392	-180.929	36.7669	236.736	-188.366	36.7904	328.561	153.401	55.6478	209.256	444.08	106.005	223.63	370.037	70.59650000000001	272.605	366.372	65.14149999999999	158.312	260.114	36.6117	158.785	301.613	141.574	212.274	408.923	78.84010000000001	264.217	414.568	80.95699999999999	168.989	-0	0	0	-139.56	1008.56	232.51	-200	0	0	-0	0	200	-0	200	0	
117	3.166667	-14.8683	1436.21	286.294	142.249	1350.33	266.476	95.9066	1380.28	440.906	35.3685	1408.29	103.177	154.034	1183.17	266.873	-110.483	1252.51	262.951	51.8016	961.7329999999999	403.486	85.5531	955.405	123.727	-133.635	1008.55	270.677	-124.169	1004.66	192.857	-125.942	1056.4	232.01	144.465	1060.08	506.592	-0	0	0	-0	0	0	-0	0	0	275.065	818.516	441.842	258.936	830.204	399.27	232.874	815.755	465.685	-86.3978	1106.37	-19.7058	-0	0	0	-0	0	0	-0	0	0	-110.321	836.043	-48.3967	-146.674	867.667	-62.3614	-108.868	851.123	-0.976614	61.2814	790.12	86.3691	155.177	595.783	157.923	172.722	693.327	164.58	-0	0	0	-0	0	0	213.229	530.674	227.464	169.797	445.985	152.606	206.533	177.835	159.061	215.622	310.671	230.87	-0	0	0	-0	0	0	-74.1808	790.97	417.857	-122.644	580.467	371.768	-20.6358	683.74	402.291	-0	0	0	-0	0	0	-68.1985	467.194	310.031	-228.541	407.632	371.375	-309.915	214.553	348.004	-192.037	304.302	292.384	-0	0	0	-0	0	0	-433.861	102.697	285.829	-145.757	45.5497	280.882	-221.859	33.0621	230.854	-236.416	17.3583	346.154	-345.101	40.5134	333.701	-261.613	123.104	297.132	-180.424	36.343	236.809	-187.955	36.3613	328.576	156.056	56.9575	208.469	448.306	95.0913	227.697	372.019	62.7899	275.503	370.073	57.4612	161.161	262.906	33.2987	159.667	307.659	136.556	214.045	411.577	68.98350000000001	267.603	419.134	71.2582	173.056	-0	0	0	-128.902	1006.61	231.767	-200	0	0	-0	0	200	-0	200	0	
